<svg
  display="none"
  width="0"
  height="0"
  version="1.1"
  xmlns="http://www.w3.org/2000/svg"
  xmlns:xlink="http://www.w3.org/1999/xlink"
>
  <defs>

    <symbol
      viewBox="0 0 10 10"
      id="icon-star"
    >
      <g clipPath="url(#clip0_1_13544)">
        <path
          d="M5.00065 0.833984L6.28815 3.44232L9.16732 3.86315L7.08398 5.89232L7.57565 8.75899L5.00065 7.40482L2.42565 8.75899L2.91732 5.89232L0.833984 3.86315L3.71315 3.44232L5.00065 0.833984Z"
          fill="currentColor"
          stroke="currentColor"
          strokeLinecap="round"
          strokeLinejoin="round"
        />
      </g>
      <defs>
        <clipPath id="clip0_1_13544">
          <rect width="10" height="10" fill="white" />
        </clipPath>
      </defs>
    </symbol>

    <symbol
      id="icon-cart"
      viewBox="0 0 16 16"
    >
      <g clipPath="url(#clip0_1_13560)">
        <path
          d="M6.00065 14.6673C6.36884 14.6673 6.66732 14.3688 6.66732 14.0007C6.66732 13.6325 6.36884 13.334 6.00065 13.334C5.63246 13.334 5.33398 13.6325 5.33398 14.0007C5.33398 14.3688 5.63246 14.6673 6.00065 14.6673Z"
          stroke="#B4916C"
          strokeLinecap="round"
          strokeLinejoin="round"
        />
        <path
          d="M13.3327 14.6673C13.7009 14.6673 13.9993 14.3688 13.9993 14.0007C13.9993 13.6325 13.7009 13.334 13.3327 13.334C12.9645 13.334 12.666 13.6325 12.666 14.0007C12.666 14.3688 12.9645 14.6673 13.3327 14.6673Z"
          stroke="#B4916C"
          strokeLinecap="round"
          strokeLinejoin="round"
        />
        <path
          d="M0.666016 0.666016H3.33268L5.11935 9.59268C5.18031 9.89961 5.34729 10.1753 5.59105 10.3715C5.8348 10.5678 6.13981 10.672 6.45268 10.666H12.9327C13.2456 10.672 13.5506 10.5678 13.7943 10.3715C14.0381 10.1753 14.2051 9.89961 14.266 9.59268L15.3327 3.99935H3.99935"
          stroke="#B4916C"
          strokeWidth="1.5"
          strokeLinecap="round"
          strokeLinejoin="round"
        />
      </g>
      <defs>
        <clipPath id="clip0_1_13560">
          <rect width="16" height="16" fill="white" />
        </clipPath>
      </defs>
    </symbol>

    <symbol id="icon-clock" viewBox="0 0 61 54" fill="none">
      <path
        d="M28.6271 28.5714C29.3532 28.5714 29.9417 27.9931 29.9417 27.2798C29.9417 26.5665 29.3532 25.9883 28.6271 25.9883C27.9011 25.9883 27.3125 26.5665 27.3125 27.2798C27.3125 27.9931 27.9011 28.5714 28.6271 28.5714Z"
        fill="url(#paint0_linear_1_15140)" />
      <path
        d="M28.6269 9.13477C28.4673 9.13477 28.3228 9.19832 28.2182 9.30113C28.1136 9.40383 28.0488 9.54579 28.0488 9.70271V13.8667C28.0488 13.9843 28.0852 14.0935 28.1475 14.1841C28.189 14.2446 28.2421 14.2967 28.3036 14.3375C28.3343 14.358 28.3672 14.3755 28.4018 14.3899C28.4709 14.4185 28.547 14.4345 28.6267 14.4345C28.7863 14.4345 28.9308 14.371 29.0354 14.2682C29.14 14.1654 29.2048 14.0235 29.2048 13.8666V9.7026C29.2049 9.38898 28.946 9.13477 28.6269 9.13477Z"
        fill="#B4916C" />
      <path
        d="M28.6268 40.1367C28.3076 40.1367 28.0488 40.391 28.0488 40.7046V44.8685C28.0488 44.9227 28.0589 44.9739 28.0733 45.0234C28.1422 45.2612 28.3627 45.4364 28.6267 45.4364C28.7065 45.4364 28.7825 45.4204 28.8516 45.3917C29.059 45.3055 29.2046 45.1037 29.2046 44.8684V40.7044C29.2048 40.3909 28.9459 40.1367 28.6268 40.1367Z"
        fill="#B4916C" />
      <path
        d="M46.5233 26.7188H42.285C41.9658 26.7188 41.707 26.973 41.707 27.2866C41.707 27.6002 41.9658 27.8544 42.285 27.8544H46.5233C46.8425 27.8544 47.1013 27.6002 47.1013 27.2866C47.1014 26.973 46.8425 26.7188 46.5233 26.7188Z"
        fill="#B4916C" />
      <path
        d="M15.5468 27.2866C15.5468 27.169 15.5105 27.0597 15.4482 26.969C15.4067 26.9086 15.3536 26.8564 15.2921 26.8157C15.1998 26.7544 15.0886 26.7188 14.9689 26.7188H10.7304C10.5708 26.7188 10.4263 26.7823 10.3217 26.8851C10.2171 26.9879 10.1523 27.1298 10.1523 27.2867C10.1523 27.6003 10.4111 27.8545 10.7303 27.8545H14.9686C15.1282 27.8545 15.2727 27.791 15.3774 27.6882C15.482 27.5853 15.5468 27.4435 15.5468 27.2866Z"
        fill="#B4916C" />
      <path
        d="M38.6938 18.197L41.6907 15.2526C41.9164 15.0309 41.9164 14.6713 41.6907 14.4496C41.465 14.2277 41.0991 14.2278 40.8733 14.4496L37.8764 17.3939C37.6506 17.6158 37.6506 17.9752 37.8764 18.197C38.1021 18.4187 38.4681 18.4187 38.6938 18.197Z"
        fill="#B4916C" />
      <path
        d="M19.3775 36.3714C19.1518 36.1496 18.7858 36.1496 18.5601 36.3714L15.5632 39.3158C15.3685 39.507 15.3428 39.8004 15.4839 40.0199C15.5018 40.0478 15.5232 40.0738 15.5465 40.0989C15.5525 40.1054 15.5567 40.1126 15.5632 40.1189C15.6733 40.2272 15.8169 40.2817 15.9613 40.2843C15.9648 40.2844 15.9683 40.2853 15.9718 40.2853C16.1197 40.2853 16.2676 40.2298 16.3806 40.1189L19.3775 37.1746C19.4621 37.0914 19.5151 36.989 19.5362 36.8815C19.5432 36.8457 19.5467 36.8095 19.5467 36.7731C19.5469 36.6276 19.4905 36.4821 19.3775 36.3714Z"
        fill="#B4916C" />
      <path
        d="M41.6906 39.3144L38.6937 36.37C38.6231 36.3007 38.5383 36.2557 38.449 36.2297C38.3631 36.2047 38.2731 36.198 38.1852 36.213C38.0721 36.2324 37.9637 36.284 37.8764 36.3698C37.6506 36.5917 37.6506 36.9511 37.8764 37.1728L40.8733 40.1172C40.9072 40.1505 40.9448 40.1771 40.9841 40.2004C41.2063 40.3323 41.4989 40.3058 41.6908 40.1172C41.7828 40.0269 41.8353 39.9132 41.8522 39.7957C41.8767 39.6253 41.8243 39.4459 41.6906 39.3144Z"
        fill="#B4916C" />
      <path
        d="M16.3793 14.4496C16.2664 14.3387 16.1184 14.2832 15.9705 14.2832C15.9336 14.2832 15.8966 14.2867 15.8602 14.2936C15.7508 14.3144 15.6465 14.3662 15.5619 14.4495C15.4491 14.5603 15.3926 14.7057 15.3926 14.851C15.3926 14.8873 15.3961 14.9237 15.4031 14.9595C15.4243 15.0669 15.4771 15.1694 15.5618 15.2525L18.5587 18.1969C18.5639 18.202 18.57 18.2053 18.5754 18.2101C18.6281 18.2583 18.6868 18.2964 18.75 18.3216C18.8195 18.3493 18.8936 18.3631 18.9675 18.3631C19.1154 18.3631 19.2634 18.3077 19.3762 18.1968C19.4609 18.1137 19.5138 18.0111 19.5349 17.9038C19.542 17.868 19.5455 17.8317 19.5455 17.7953C19.5455 17.65 19.489 17.5046 19.3761 17.3937L16.3793 14.4496Z"
        fill="#B4916C" />
      <path
        d="M30.2817 28.9059C29.3689 28.9059 28.6289 28.1788 28.6289 27.282C28.6289 26.3853 29.3689 25.6582 30.2817 25.6582C31.1945 25.6582 39.707 26.3853 39.707 27.282C39.7071 28.1789 31.1945 28.9059 30.2817 28.9059Z"
        fill="#B4916C" />
      <path
        d="M30.2802 25.6566C30.2802 26.5534 29.5402 27.2805 28.6274 27.2805C27.7146 27.2805 26.9746 26.5534 26.9746 25.6566C26.9746 24.7599 27.7146 11.7969 28.6274 11.7969C29.5402 11.797 30.2802 24.7599 30.2802 25.6566Z"
        fill="#B4916C" />
      <path
        d="M28.6274 29.7582C30.0192 29.7582 31.1474 28.6498 31.1474 27.2824C31.1474 25.9151 30.0192 24.8066 28.6274 24.8066C27.2357 24.8066 26.1074 25.9151 26.1074 27.2824C26.1074 28.6498 27.2357 29.7582 28.6274 29.7582Z"
        fill="#B4916C" />
      <path
        d="M26.3945 52.8669V49.7275C26.3945 48.7563 26.7532 47.807 27.4708 46.8792C28.1881 45.9516 29.072 45.1101 30.1219 44.3546L33.2884 42.0902C34.3441 41.3356 35.2397 40.5053 35.9768 39.5994C36.7133 38.6941 37.0818 37.7882 37.0818 36.8823C37.0818 35.977 36.7793 35.1844 36.1748 34.5049C35.5697 33.826 34.6848 33.4862 33.5194 33.4862C32.5299 33.4862 31.7269 33.7546 31.1117 34.2907C30.4956 34.8271 30.188 35.6205 30.188 36.6711C30.188 37.0146 30.0174 37.3152 29.6767 37.5725C29.3357 37.8298 28.8903 37.9584 28.3408 37.9584C27.2853 37.9584 26.7576 37.3213 26.7576 36.0463C26.7576 34.3612 27.4225 32.984 28.7532 31.9146C30.0834 30.8452 31.6722 30.3105 33.5194 30.3105C35.4763 30.3105 37.1423 30.9123 38.5167 32.1165C39.8907 33.3207 40.5783 34.8766 40.5783 36.7855C40.5783 38.0797 40.2099 39.2925 39.4733 40.4246C38.7362 41.5568 37.8457 42.5164 36.8015 43.3032C35.7567 44.0906 34.7121 44.8344 33.668 45.5352C32.6233 46.236 31.7329 46.9423 30.9962 47.6539C30.2591 48.3658 29.8913 49.0559 29.8913 49.7243V50.9532H39.5888C39.8965 50.9532 40.1659 51.0991 40.3969 51.3907C40.6279 51.6825 40.7434 52.034 40.7434 52.4441C40.7434 52.8547 40.6285 53.2167 40.3991 53.5296C40.1698 53.8431 39.9023 53.9997 39.5966 53.9997H27.9343C27.5848 53.9997 27.2405 53.8917 26.9025 53.6761C26.5636 53.4603 26.3945 53.1909 26.3945 52.8669Z"
        fill="#B4916C" />
      <path
        d="M58.9014 23.3705H56.2348H56.111C54.1735 10.1736 42.5881 0 28.6277 0C13.315 0 0.857422 12.239 0.857422 27.283C0.857422 33.4906 3.03676 39.5663 6.99394 44.3907C10.8915 49.1424 16.3536 52.5092 22.374 53.8711C22.5387 53.9085 22.7034 53.9263 22.8657 53.9263C23.8598 53.9263 24.7586 53.2546 24.9912 52.2623C25.2617 51.1078 24.5286 49.9567 23.3534 49.691C18.2825 48.5438 13.6801 45.7057 10.3937 41.6992C7.0114 37.5757 5.22371 32.5909 5.22371 27.2833C5.22371 14.6045 15.7226 4.28983 28.6277 4.28983C40.1753 4.28983 49.795 12.5492 51.6911 23.3706H49.3882C47.6491 23.3706 46.7781 25.4364 48.0079 26.6445L52.7645 31.3177C53.5268 32.0667 54.7629 32.0667 55.5252 31.3177L60.2818 26.6445C61.5115 25.4363 60.6404 23.3705 58.9014 23.3705Z"
        fill="#B4916C" />
      <defs>
        <linearGradient id="paint0_linear_1_15140" x1="28.6265" y1="26.6483" x2="28.6265"
          y2="30.5029" gradientUnits="userSpaceOnUse">
          <stop stop-color="#F18D00" />
          <stop offset="1" stop-color="#ED7103" />
        </linearGradient>
      </defs>
    </symbol>

    <symbol
      viewBox="0 0 16 16"
      id="icon-check"
    >
      <path
        d="M10.9697 4.97047C11.1105 4.83636 11.298 4.76222 11.4925 4.76369C11.687 4.76516 11.8733 4.84214 12.0121 4.97836C12.1509 5.11459 12.2314 5.29942 12.2366 5.49385C12.2417 5.68828 12.1711 5.8771 12.0397 6.02047L8.04967 11.0105C7.98106 11.0844 7.89825 11.1437 7.8062 11.1848C7.71415 11.226 7.61474 11.2482 7.51392 11.2501C7.4131 11.2519 7.31294 11.2334 7.21943 11.1957C7.12591 11.158 7.04097 11.1018 6.96967 11.0305L4.32367 8.38447C4.24998 8.31581 4.19088 8.23301 4.14989 8.14101C4.1089 8.04901 4.08685 7.9497 4.08508 7.849C4.0833 7.74829 4.10183 7.64827 4.13955 7.55488C4.17727 7.46149 4.23341 7.37666 4.30463 7.30544C4.37585 7.23422 4.46068 7.17807 4.55407 7.14035C4.64746 7.10263 4.74749 7.08411 4.84819 7.08588C4.94889 7.08766 5.04821 7.1097 5.14021 7.15069C5.23221 7.19169 5.31501 7.25079 5.38367 7.32447L7.47767 9.41747L10.9507 4.99248C10.9569 4.98478 10.9626 4.97743 10.9697 4.97047Z"
        fill="white" />
    </symbol>

    <symbol
      viewBox="0 0 21 20"
      id="icon-search"
    >
      <path
        d="M18.2656 16.6895L13.1934 11.6172C13.9805 10.5996 14.4062 9.35547 14.4062 8.04688C14.4062 6.48047 13.7949 5.01172 12.6895 3.9043C11.584 2.79687 10.1113 2.1875 8.54688 2.1875C6.98242 2.1875 5.50977 2.79883 4.4043 3.9043C3.29687 5.00977 2.6875 6.48047 2.6875 8.04688C2.6875 9.61133 3.29883 11.084 4.4043 12.1895C5.50977 13.2969 6.98047 13.9062 8.54688 13.9062C9.85547 13.9062 11.0977 13.4805 12.1152 12.6953L17.1875 17.7656C17.2024 17.7805 17.22 17.7923 17.2395 17.8004C17.2589 17.8084 17.2797 17.8126 17.3008 17.8126C17.3218 17.8126 17.3427 17.8084 17.3621 17.8004C17.3815 17.7923 17.3992 17.7805 17.4141 17.7656L18.2656 16.916C18.2805 16.9011 18.2923 16.8835 18.3004 16.864C18.3084 16.8446 18.3126 16.8238 18.3126 16.8027C18.3126 16.7817 18.3084 16.7609 18.3004 16.7414C18.2923 16.722 18.2805 16.7043 18.2656 16.6895ZM11.6406 11.1406C10.8125 11.9668 9.71484 12.4219 8.54688 12.4219C7.37891 12.4219 6.28125 11.9668 5.45312 11.1406C4.62695 10.3125 4.17188 9.21484 4.17188 8.04688C4.17188 6.87891 4.62695 5.7793 5.45312 4.95312C6.28125 4.12695 7.37891 3.67188 8.54688 3.67188C9.71484 3.67188 10.8145 4.125 11.6406 4.95312C12.4668 5.78125 12.9219 6.87891 12.9219 8.04688C12.9219 9.21484 12.4668 10.3145 11.6406 11.1406Z"
        fill="currentColor"
      />
    </symbol>

    <symbol
      viewBox="0 0 512 512"
      id="icon-phone"
    >
      <path
        d="M280 0C408.1 0 512 103.9 512 232c0 13.3-10.7 24-24 24s-24-10.7-24-24c0-101.6-82.4-184-184-184c-13.3 0-24-10.7-24-24s10.7-24 24-24zm8 192a32 32 0 1 1 0 64 32 32 0 1 1 0-64zm-32-72c0-13.3 10.7-24 24-24c75.1 0 136 60.9 136 136c0 13.3-10.7 24-24 24s-24-10.7-24-24c0-48.6-39.4-88-88-88c-13.3 0-24-10.7-24-24zM117.5 1.4c19.4-5.3 39.7 4.6 47.4 23.2l40 96c6.8 16.3 2.1 35.2-11.6 46.3L144 207.3c33.3 70.4 90.3 127.4 160.7 160.7L345 318.7c11.2-13.7 30-18.4 46.3-11.6l96 40c18.6 7.7 28.5 28 23.2 47.4l-24 88C481.8 499.9 466 512 448 512C200.6 512 0 311.4 0 64C0 46 12.1 30.2 29.5 25.4l88-24z"
        fill="currentColor"
      />
    </symbol>

    <symbol
      id="icon-heart"
      viewBox="0 0 15 15"
    >
      <path
        d="M13.0258 2.88044C12.7066 2.56107 12.3276 2.30772 11.9104 2.13487C11.4932 1.96201 11.0461 1.87305 10.5946 1.87305C10.143 1.87305 9.69587 1.96201 9.27871 2.13487C8.86155 2.30772 8.48253 2.56107 8.16331 2.88044L7.50081 3.54294L6.83831 2.88044C6.1935 2.23563 5.31895 1.87338 4.40706 1.87338C3.49516 1.87338 2.62061 2.23563 1.97581 2.88044C1.331 3.52525 0.96875 4.39979 0.96875 5.31169C0.96875 6.22358 1.331 7.09813 1.97581 7.74294L2.63831 8.40544L7.50081 13.2679L12.3633 8.40544L13.0258 7.74294C13.3452 7.42372 13.5985 7.0447 13.7714 6.62753C13.9442 6.21037 14.0332 5.76324 14.0332 5.31169C14.0332 4.86013 13.9442 4.413 13.7714 3.99584C13.5985 3.57868 13.3452 3.19966 13.0258 2.88044V2.88044Z"
        stroke="#B4916C"
        stroke-linecap="round"
        stroke-linejoin="round"
        fill="currentColor"
      />
    </symbol>

    <svg id="icon-heart-insurance" viewBox="0 0 60 61" fill="none">
      <g clip-path="url(#clip0_1_15120)">
        <path
          d="M22.4877 39.0444C22.2257 38.8409 20.1475 37.2694 14.3817 36.887C14.0645 36.8606 13.745 36.636 13.4633 36.447C13.1048 36.2085 12.7325 35.958 12.4609 35.6351C12.0194 35.1082 11.5209 34.6653 11.102 34.0804C8.29874 30.1721 5.55164 29.3875 5.14089 29.2326C4.59387 28.9686 2.4984 29.2935 3.50511 30.6908C3.56893 30.7014 6.71046 35.1145 6.91439 35.4671C7.27523 36.09 7.68358 36.3443 8.06698 36.7819C8.41726 37.1812 8.80497 37.5482 9.16294 37.9403C9.16294 37.9403 7.15383 36.7507 6.67255 36.2301C6.45806 35.9969 6.3549 35.662 6.18407 35.3846C5.98638 35.065 5.77621 34.7536 5.56172 34.4456C5.293 34.0612 5.02285 33.6778 4.73783 33.3059C4.37411 32.8323 3.99647 32.3688 3.62171 31.9029C3.38851 31.6131 3.12508 31.3333 2.93266 31.031C1.98257 29.5301 3.06749 28.6323 4.10012 28.519C4.05021 28.3463 3.57517 23.8075 3.49216 23.0455C3.25511 20.8574 3.02095 19.2365 1.76664 18.7955C1.44323 18.6813 1.21482 18.7197 0.973941 18.974C0.688914 19.2734 0.51905 20.8627 0.436997 21.8674C0.436997 21.8674 -0.111463 27.259 0.0204935 29.7748C0.0910304 31.1241 4.28246 40.4062 5.48686 41.8404C6.69031 43.2742 16.1101 48.7046 16.1101 48.7046C16.4249 48.9666 18.1691 50.3096 18.1691 52.0707V55.8941L28.3245 55.9056L28.3331 52.397C28.3566 51.7487 28.467 51.1043 28.5447 50.4579C28.7659 49.7204 28.5889 48.3269 28.4857 47.7857C27.3063 42.5213 22.9627 39.4115 22.4877 39.0444Z"
          fill="#B4916C" />
        <path
          d="M59.5651 21.8674C59.4825 20.8622 59.3131 19.2734 59.0281 18.974C58.7872 18.7197 58.5583 18.6813 58.2349 18.7955C56.9821 19.237 56.7465 20.8579 56.5099 23.0455C56.4264 23.8075 55.9518 28.3463 55.9015 28.519C56.9336 28.6323 58.0195 29.5301 57.0689 31.031C56.877 31.3343 56.614 31.6135 56.3803 31.9034C56.0056 32.3688 55.6275 32.8323 55.2637 33.3055C54.9782 33.6773 54.7086 34.0607 54.4403 34.4451C54.2258 34.7536 54.0147 35.0646 53.8175 35.3841C53.6476 35.6615 53.5445 35.9955 53.3285 36.2301C52.8468 36.7517 50.8382 37.9407 50.8382 37.9407C51.1961 37.5482 51.5848 37.1807 51.9346 36.7814C52.318 36.3448 52.7259 36.09 53.0867 35.4667C53.2916 35.1145 56.4331 30.7014 56.496 30.6908C57.5032 29.2935 55.4067 28.9686 54.8602 29.2326C54.4499 29.3871 51.7028 30.1721 48.8991 34.0799C48.4807 34.6649 47.9817 35.1092 47.5402 35.6351C47.2691 35.959 46.8958 36.2085 46.5373 36.447C46.2557 36.6356 45.9361 36.8601 45.6189 36.8865C39.8531 37.2694 37.7754 38.8414 37.5129 39.0449C37.0384 39.4124 32.6948 42.5208 31.5149 47.7847C31.4112 48.326 31.2347 49.7194 31.4559 50.457C31.5336 51.1033 31.6444 51.7477 31.6675 52.396L31.6761 55.9046L41.8315 55.8931V52.0697C41.8315 50.3087 43.5757 48.9656 43.8905 48.7036C43.8905 48.7036 53.3098 43.2747 54.5138 41.8395C55.7182 40.4057 59.9086 31.1236 59.9801 29.7738C60.113 27.259 59.5651 21.8674 59.5651 21.8674Z"
          fill="#B4916C" />
        <path
          d="M36.1222 33.8603C40.9398 29.3281 46.9206 23.7015 47.7426 18.6939C48.3189 15.1526 47.755 12.2338 46.067 10.0178C44.3621 7.78082 41.7695 6.50396 38.1385 6.11384C37.7887 6.07881 37.4701 6.0625 37.1534 6.0625C34.5848 6.0625 31.9922 7.01931 30.0023 8.63494C28.0129 7.01931 25.4193 6.0625 22.8517 6.0625C22.535 6.0625 22.2169 6.07881 21.8666 6.11384C18.2356 6.50348 15.6416 7.78082 13.9377 10.0178C12.2486 12.2338 11.6853 15.1526 12.262 18.6939C13.0835 23.702 19.0643 29.3286 23.8819 33.8603C23.8819 33.8603 26.285 36.2715 27.0071 36.8905C27.5498 37.3569 28.7274 38.2959 30.0023 38.2959C31.2777 38.2959 32.4553 37.3569 32.998 36.8905C33.7196 36.2719 36.1222 33.8603 36.1222 33.8603ZM23.8848 12.037C20.8157 12.037 18.3181 14.2582 18.3181 16.9885C18.3181 17.8172 17.6468 18.4885 16.8177 18.4885C15.989 18.4885 15.3182 17.8172 15.3182 16.9885C15.3182 12.6037 19.1607 9.03704 23.8848 9.03704C24.7135 9.03704 25.3848 9.70834 25.3848 10.537C25.3848 11.3657 24.7135 12.037 23.8848 12.037Z"
          fill="#B4916C" />
      </g>
      <defs>
        <clipPath id="clip0_1_15120">
          <rect width="60" height="60" fill="white" transform="translate(0 0.984375)" />
        </clipPath>
      </defs>
    </svg>

    <symbol
      viewBox="0 0 25 24"
      id="icon-cart-plus"
    >
      <g clipPath="url(#clip0_1_15083)">
        <path
          d="M18.0385 7.63636C18.0385 7.34091 17.9471 7.08523 17.7644 6.86932C17.5817 6.65341 17.3654 6.54545 17.1154 6.54545H15.2692V4.36364C15.2692 4.06818 15.1779 3.8125 14.9952 3.59659C14.8125 3.38068 14.5962 3.27273 14.3462 3.27273C14.0962 3.27273 13.8798 3.38068 13.6971 3.59659C13.5144 3.8125 13.4231 4.06818 13.4231 4.36364V6.54545H11.5769C11.3269 6.54545 11.1106 6.65341 10.9279 6.86932C10.7452 7.08523 10.6538 7.34091 10.6538 7.63636C10.6538 7.93182 10.7452 8.1875 10.9279 8.40341C11.1106 8.61932 11.3269 8.72727 11.5769 8.72727H13.4231V10.9091C13.4231 11.2045 13.5144 11.4602 13.6971 11.6761C13.8798 11.892 14.0962 12 14.3462 12C14.5962 12 14.8125 11.892 14.9952 11.6761C15.1779 11.4602 15.2692 11.2045 15.2692 10.9091V8.72727H17.1154C17.3654 8.72727 17.5817 8.61932 17.7644 8.40341C17.9471 8.1875 18.0385 7.93182 18.0385 7.63636ZM9.73077 21.8182C9.73077 22.4205 9.55048 22.9347 9.1899 23.3608C8.82933 23.7869 8.39423 24 7.88462 24C7.375 24 6.9399 23.7869 6.57933 23.3608C6.21875 22.9347 6.03846 22.4205 6.03846 21.8182C6.03846 21.2159 6.21875 20.7017 6.57933 20.2756C6.9399 19.8494 7.375 19.6364 7.88462 19.6364C8.39423 19.6364 8.82933 19.8494 9.1899 20.2756C9.55048 20.7017 9.73077 21.2159 9.73077 21.8182ZM22.6538 21.8182C22.6538 22.4205 22.4736 22.9347 22.113 23.3608C21.7524 23.7869 21.3173 24 20.8077 24C20.2981 24 19.863 23.7869 19.5024 23.3608C19.1418 22.9347 18.9615 22.4205 18.9615 21.8182C18.9615 21.2159 19.1418 20.7017 19.5024 20.2756C19.863 19.8494 20.2981 19.6364 20.8077 19.6364C21.3173 19.6364 21.7524 19.8494 22.113 20.2756C22.4736 20.7017 22.6538 21.2159 22.6538 21.8182ZM24.5 3.27273V12C24.5 12.2727 24.4231 12.5142 24.2692 12.7244C24.1154 12.9347 23.9183 13.0568 23.6779 13.0909L8.62019 15.1705C8.62981 15.25 8.65144 15.3722 8.6851 15.5369C8.71875 15.7017 8.7476 15.8523 8.77164 15.9886C8.79567 16.125 8.80769 16.25 8.80769 16.3636C8.80769 16.5455 8.69231 16.9091 8.46154 17.4545H21.7308C21.9808 17.4545 22.1971 17.5625 22.3798 17.7784C22.5625 17.9943 22.6538 18.25 22.6538 18.5455C22.6538 18.8409 22.5625 19.0966 22.3798 19.3125C22.1971 19.5284 21.9808 19.6364 21.7308 19.6364H6.96154C6.71154 19.6364 6.49519 19.5284 6.3125 19.3125C6.12981 19.0966 6.03846 18.8409 6.03846 18.5455C6.03846 18.3864 6.09135 18.1619 6.19712 17.8722C6.30288 17.5824 6.44471 17.2443 6.6226 16.858C6.80048 16.4716 6.89904 16.2557 6.91827 16.2102L4.36538 2.18182H1.42308C1.17308 2.18182 0.956731 2.07386 0.774038 1.85795C0.591346 1.64205 0.5 1.38636 0.5 1.09091C0.5 0.795455 0.591346 0.539773 0.774038 0.323864C0.956731 0.107955 1.17308 0 1.42308 0H5.11538C5.26923 0 5.40625 0.0369318 5.52644 0.110795C5.64663 0.184659 5.74279 0.272727 5.8149 0.375C5.88702 0.477273 5.94952 0.616477 6.0024 0.792614C6.05529 0.96875 6.09135 1.11932 6.11058 1.24432C6.12981 1.36932 6.15625 1.53693 6.1899 1.74716C6.22356 1.95739 6.24519 2.10227 6.25481 2.18182H23.5769C23.8269 2.18182 24.0433 2.28977 24.226 2.50568C24.4087 2.72159 24.5 2.97727 24.5 3.27273Z"
          fill="currentColor"
        />
      </g>
      <defs>
        <clipPath id="clip0_1_15083">
          <rect
            width="24"
            height="24"
            fill="white"
            transform="translate(0.5)"
          />
        </clipPath>
      </defs>
    </symbol>

    <symbol viewBox="0 0 12 13" fill="none" id="icon-cart-shopping">
      <g clip-path="url(#clip0_1_22106)">
        <path
          d="M4.5 11.5C4.77614 11.5 5 11.2761 5 11C5 10.7239 4.77614 10.5 4.5 10.5C4.22386 10.5 4 10.7239 4 11C4 11.2761 4.22386 11.5 4.5 11.5Z"
          stroke="#B4916C" stroke-width="2" stroke-linecap="round" stroke-linejoin="round" />
        <path
          d="M10 11.5C10.2761 11.5 10.5 11.2761 10.5 11C10.5 10.7239 10.2761 10.5 10 10.5C9.72386 10.5 9.5 10.7239 9.5 11C9.5 11.2761 9.72386 11.5 10 11.5Z"
          stroke="#B4916C" stroke-width="2" stroke-linecap="round" stroke-linejoin="round" />
        <path
          d="M0.5 1H2.5L3.84 7.695C3.88572 7.9252 4.01095 8.13198 4.19377 8.27915C4.37659 8.42632 4.60535 8.5045 4.84 8.5H9.7C9.93465 8.5045 10.1634 8.42632 10.3462 8.27915C10.529 8.13198 10.6543 7.9252 10.7 7.695L11.5 3.5H3"
          stroke="#B4916C" stroke-linecap="round" stroke-linejoin="round" />
      </g>
      <defs>
        <clipPath id="clip0_1_22106">
          <rect width="12" height="12" fill="white" transform="translate(0 0.5)" />
        </clipPath>
      </defs>
    </symbol>

    <symbol
      id="icon-chevron-down"
      viewBox="0 0 10 6"
    >
      <path
        d="M0.227402 0.46959C0.368048 0.328987 0.558779 0.25 0.757652 0.25C0.956525 0.25 1.14726 0.328987 1.2879 0.46959L5.0004 4.18209L8.7129 0.46959C8.85435 0.332971 9.04381 0.257375 9.24045 0.259084C9.4371 0.260793 9.62521 0.33967 9.76427 0.478726C9.90332 0.617782 9.9822 0.805891 9.98391 1.00254C9.98562 1.19919 9.91002 1.38864 9.7734 1.53009L5.53065 5.77284C5.39001 5.91344 5.19928 5.99243 5.0004 5.99243C4.80153 5.99243 4.6108 5.91344 4.47015 5.77284L0.227402 1.53009C0.0867991 1.38944 0.0078125 1.19871 0.0078125 0.99984C0.0078125 0.800967 0.0867991 0.610236 0.227402 0.46959Z"
        fill="currentColor"
      />
    </symbol>

    <symbol
      id="icon-down-angle"
      viewBox="0 0 448 512"
    >
      <path
        d="M201.4 374.6c12.5 12.5 32.8 12.5 45.3 0l160-160c12.5-12.5 12.5-32.8 0-45.3s-32.8-12.5-45.3 0L224 306.7 86.6 169.4c-12.5-12.5-32.8-12.5-45.3 0s-12.5 32.8 0 45.3l160 160z"
        fill="currentColor"
      />
    </symbol>

    <symbol
      id="icon-envelope"
      viewBox="0 0 512 512"
    >
      <path
        d="M64 112c-8.8 0-16 7.2-16 16v22.1L220.5 291.7c20.7 17 50.4 17 71.1 0L464 150.1V128c0-8.8-7.2-16-16-16H64zM48 212.2V384c0 8.8 7.2 16 16 16H448c8.8 0 16-7.2 16-16V212.2L322 328.8c-38.4 31.5-93.7 31.5-132 0L48 212.2zM0 128C0 92.7 28.7 64 64 64H448c35.3 0 64 28.7 64 64V384c0 35.3-28.7 64-64 64H64c-35.3 0-64-28.7-64-64V128z"
        fill="currentColor"
      />
    </symbol>

    <symbol
      viewBox="64 64 896 896"
      focusable="false"
      data-icon="eye"
      fill="currentColor"
      aria-hidden="true"
      id="icon-eye"
    >
      <path
        d="M942.2 486.2C847.4 286.5 704.1 186 512 186c-192.2 0-335.4 100.5-430.2 300.3a60.3 60.3 0 000 51.5C176.6 737.5 319.9 838 512 838c192.2 0 335.4-100.5 430.2-300.3 7.7-16.2 7.7-35 0-51.5zM512 766c-161.3 0-279.4-81.8-362.7-254C232.6 339.8 350.7 258 512 258c161.3 0 279.4 81.8 362.7 254C791.5 684.2 673.4 766 512 766zm-4-430c-97.2 0-176 78.8-176 176s78.8 176 176 176 176-78.8 176-176-78.8-176-176-176zm0 288c-61.9 0-112-50.1-112-112s50.1-112 112-112 112 50.1 112 112-50.1 112-112 112z"
        fill="currentColor"
      ></path>
    </symbol>

    <symbol
      viewBox="64 64 896 896"
      focusable="false"
      data-icon="eye-invisible"
      aria-hidden="true"
      id="icon-eye-invisible"
      fill="currentColor"
    >
      <path
        d="M942.2 486.2Q889.47 375.11 816.7 305l-50.88 50.88C807.31 395.53 843.45 447.4 874.7 512 791.5 684.2 673.4 766 512 766q-72.67 0-133.87-22.38L323 798.75Q408 838 512 838q288.3 0 430.2-300.3a60.29 60.29 0 000-51.5zm-63.57-320.64L836 122.88a8 8 0 00-11.32 0L715.31 232.2Q624.86 186 512 186q-288.3 0-430.2 300.3a60.3 60.3 0 000 51.5q56.69 119.4 136.5 191.41L112.48 835a8 8 0 000 11.31L155.17 889a8 8 0 0011.31 0l712.15-712.12a8 8 0 000-11.32zM149.3 512C232.6 339.8 350.7 258 512 258c54.54 0 104.13 9.36 149.12 28.39l-70.3 70.3a176 176 0 00-238.13 238.13l-83.42 83.42C223.1 637.49 183.3 582.28 149.3 512zm246.7 0a112.11 112.11 0 01146.2-106.69L401.31 546.2A112 112 0 01396 512z"
      ></path>
      <path
        d="M508 624c-3.46 0-6.87-.16-10.25-.47l-52.82 52.82a176.09 176.09 0 00227.42-227.42l-52.82 52.82c.31 3.38.47 6.79.47 10.25a111.94 111.94 0 01-112 112z"
      ></path>
    </symbol>

    <symbol
      viewBox="0 0 24 25"
      id="icon-favorite"
    >
      <circle cx="12" cy="12.5" r="12" fillOpacity="0.08" />
      <path
        d="M17.0747 7.56089C16.7815 7.22456 16.4333 6.95775 16.0502 6.77572C15.667 6.59369 15.2563 6.5 14.8415 6.5C14.4268 6.5 14.0161 6.59369 13.6329 6.77572C13.2497 6.95775 12.9016 7.22456 12.6084 7.56089L11.9998 8.25857L11.3913 7.56089C10.7991 6.88184 9.99576 6.50035 9.15816 6.50035C8.32057 6.50035 7.51728 6.88184 6.92501 7.56089C6.33273 8.23994 6 9.16092 6 10.1212C6 11.0816 6.33273 12.0026 6.92501 12.6816L7.53353 13.3793L11.9998 18.5L16.4662 13.3793L17.0747 12.6816C17.368 12.3454 17.6007 11.9463 17.7595 11.507C17.9183 11.0677 18 10.5968 18 10.1212C18 9.64571 17.9183 9.17484 17.7595 8.73552C17.6007 8.29621 17.368 7.89706 17.0747 7.56089Z"
        fillOpacity="0.1"
        stroke="#B4916C"
        strokeLinecap="round"
        strokeLinejoin="round"
        fill="currentColor"
      />
    </symbol>

    <symbol
      viewBox="0 0 20 21"
      id="icon-fluent-list"
    >
      <path
        d="M2.49989 14.666H12.4999C12.7123 14.6663 12.9166 14.7476 13.071 14.8934C13.2255 15.0392 13.3184 15.2385 13.3309 15.4505C13.3433 15.6625 13.2743 15.8713 13.138 16.0342C13.0017 16.1971 12.8083 16.3018 12.5974 16.3268L12.4999 16.3327H2.49989C2.28749 16.3324 2.0832 16.2511 1.92875 16.1053C1.7743 15.9595 1.68136 15.7602 1.66891 15.5482C1.65647 15.3362 1.72545 15.1274 1.86178 14.9645C1.9981 14.8016 2.19148 14.6969 2.40239 14.6718L2.49989 14.666ZM2.49989 9.66602H17.4999C17.7123 9.66625 17.9166 9.74758 18.071 9.89339C18.2255 10.0392 18.3184 10.2385 18.3309 10.4505C18.3433 10.6625 18.2743 10.8713 18.138 11.0342C18.0017 11.1971 17.8083 11.3018 17.5974 11.3268L17.4999 11.3327H2.49989C2.28749 11.3324 2.0832 11.2511 1.92875 11.1053C1.7743 10.9595 1.68136 10.7602 1.66891 10.5482C1.65647 10.3362 1.72545 10.1274 1.86178 9.96449C1.9981 9.80161 2.19148 9.69694 2.40239 9.67185L2.49989 9.66602ZM2.49989 4.66602H14.9999C15.2123 4.66625 15.4166 4.74758 15.571 4.89339C15.7255 5.0392 15.8184 5.23848 15.8309 5.45051C15.8433 5.66255 15.7743 5.87133 15.638 6.03421C15.5017 6.19709 15.3083 6.30176 15.0974 6.32685L14.9999 6.33268H2.49989C2.28749 6.33245 2.0832 6.25112 1.92875 6.10531C1.7743 5.9595 1.68136 5.76022 1.66891 5.54819C1.65647 5.33615 1.72545 5.12737 1.86178 4.96449C1.9981 4.80161 2.19148 4.69694 2.40239 4.67185L2.49989 4.66602Z"
        fill="currentColor"
      />
    </symbol>

    <symbol width="16" height="17" id="icon-google" viewBox="0 0 16 17" fill="none">
      <path
        d="M15.8445 6.93323H15.2001V6.90003H8.00003V10.1H12.5213C11.8617 11.9628 10.0892 13.3001 8.00003 13.3001C5.34922 13.3001 3.20001 11.1508 3.20001 8.50003C3.20001 5.84922 5.34922 3.70001 8.00003 3.70001C9.22364 3.70001 10.3368 4.16162 11.1844 4.91562L13.4473 2.65281C12.0185 1.3212 10.1072 0.5 8.00003 0.5C3.58202 0.5 0 4.08202 0 8.50003C0 12.9181 3.58202 16.5001 8.00003 16.5001C12.4181 16.5001 16.0001 12.9181 16.0001 8.50003C16.0001 7.96363 15.9449 7.44003 15.8445 6.93323Z"
        fill="#FFC107" />
      <path
        d="M0.921875 4.77642L3.55029 6.70403C4.26149 4.94322 5.9839 3.70001 7.99951 3.70001C9.22311 3.70001 10.3363 4.16162 11.1839 4.91562L13.4467 2.65281C12.0179 1.3212 10.1067 0.5 7.99951 0.5C4.92669 0.5 2.26188 2.23481 0.921875 4.77642Z"
        fill="#FF3D00" />
      <path
        d="M7.99996 16.5003C10.0664 16.5003 11.944 15.7095 13.3636 14.4235L10.8876 12.3283C10.0844 12.9367 9.08596 13.3003 7.99996 13.3003C5.91915 13.3003 4.15234 11.9735 3.48674 10.1219L0.87793 12.1319C2.20194 14.7227 4.89075 16.5003 7.99996 16.5003Z"
        fill="#4CAF50" />
      <path
        d="M15.8444 6.93322H15.2V6.90002H8V10.1H12.5212C12.2044 10.9948 11.6288 11.7664 10.8864 12.3284C10.8868 12.328 10.8872 12.328 10.8876 12.3276L13.3636 14.4229C13.1884 14.5821 16 12.5 16 8.50003C16 7.96363 15.9448 7.44003 15.8444 6.93322Z"
        fill="#1976D2" />
    </symbol>

    <symbol id="icon-group" viewBox="0 0 61 61" fill="none">
      <path
        d="M4.00213 14.112C6.21457 19.1884 9.94962 24.2096 15.1762 26.3739C15.7728 26.6191 16.4502 26.803 17.1463 26.9563C18.5384 24.9086 20.1355 23.247 22.0062 21.886C23.6157 20.7212 25.3 19.8077 27.0338 19.0903C26.5366 18.747 26.0147 18.4343 25.4677 18.1523C23.2926 17.0303 20.9372 16.0432 18.6439 14.9826C20.8005 15.5589 23.2739 15.7735 25.3372 16.5153C26.6236 16.9813 27.8107 17.6251 28.9169 18.3914C32.217 17.2817 35.6661 16.7483 39.109 16.3437C36.3187 11.7701 30.3649 8.09766 25.8779 6.43619C21.192 4.70108 15.8846 4.4865 10.6705 3.95317C7.4761 3.62817 4.00207 2.4511 1.46025 1.07778C0.882277 0.765108 0.26702 1.28623 0.465891 1.91772C1.71511 5.85982 2.34901 10.3231 4.00213 14.112Z"
        fill="#B4916C" />
      <path
        d="M59.0958 13.5096C53.2166 16.6609 46.4736 17.0471 39.8674 17.7951C36.6421 18.163 33.4476 18.6166 30.4086 19.524C29.7498 19.7202 29.0911 19.9409 28.4447 20.1862C26.5244 20.9096 24.6724 21.8599 22.9261 23.129C21.2854 24.3183 19.943 25.7285 18.8119 27.2796C17.0096 29.7564 15.7543 32.6073 14.7226 35.5686C12.8396 40.9453 11.9757 46.6593 12.1435 52.3427C12.2119 54.6479 12.2492 57.0451 12.8271 59.2951C12.9577 59.7917 13.0819 60.4232 13.4735 60.791C13.9831 61.2754 14.8966 60.7788 14.6916 60.0737C13.2125 55.1016 14.1322 49.2895 16.1769 44.5381C18.526 39.0754 23.0628 35.826 28.6063 33.8458C30.0792 33.3185 31.5832 32.8587 33.112 32.4234C33.1431 32.4112 33.1741 32.4112 33.2052 32.4112C33.5097 32.4112 33.6402 32.8526 33.3233 32.9937C31.521 33.7968 29.7312 34.6061 28.0283 35.4828C19.6881 39.7744 16.0463 49.7678 19.1723 49.7678C19.4272 49.7678 19.7254 49.7004 20.0672 49.5593C24.8899 47.5913 30.6198 47.573 35.921 46.6043C37.7854 46.2671 39.6001 45.8073 41.303 45.1084C48.0646 42.3249 52.8997 36.8807 55.777 30.3329C57.9211 25.4466 58.7539 19.6774 60.3759 14.601C60.5872 13.9511 60.1211 13.3933 59.5493 13.3933C59.4065 13.387 59.2512 13.4238 59.0958 13.5096Z"
        fill="#B4916C" />
    </symbol>

    <symbol viewBox="0 0 12 13" fill="none" id="icon-rounded-user">
      <path fill-rule="evenodd" clip-rule="evenodd"
        d="M5.7808 8.10742C3.74151 8.10742 2 8.41575 2 9.65058C2 10.8854 3.73046 11.2048 5.7808 11.2048C7.8201 11.2048 9.56111 10.8959 9.56111 9.66162C9.56111 8.4273 7.83115 8.10742 5.7808 8.10742Z"
        stroke="#B4916C" stroke-linecap="round" stroke-linejoin="round" />
      <path fill-rule="evenodd" clip-rule="evenodd"
        d="M5.78076 6.3464C7.11904 6.3464 8.20371 5.26122 8.20371 3.92295C8.20371 2.58468 7.11904 1.5 5.78076 1.5C4.44249 1.5 3.35731 2.58468 3.35731 3.92295C3.35279 5.2567 4.43044 6.34188 5.76369 6.3464H5.78076Z"
        stroke="#B4916C" stroke-linecap="round" stroke-linejoin="round" />
    </symbol>

    <symbol
      id="icon-user"
      viewBox="0 0 448 512"
    >
      <path
        d="M304 128a80 80 0 1 0 -160 0 80 80 0 1 0 160 0zM96 128a128 128 0 1 1 256 0A128 128 0 1 1 96 128zM49.3 464H398.7c-8.9-63.3-63.3-112-129-112H178.3c-65.7 0-120.1 48.7-129 112zM0 482.3C0 383.8 79.8 304 178.3 304h91.4C368.2 304 448 383.8 448 482.3c0 16.4-13.3 29.7-29.7 29.7H29.7C13.3 512 0 498.7 0 482.3z"
        fill="currentColor"
      />
    </symbol>

    <symbol viewBox="0 0 384 512" id="icon-x-mark">
      <path
        d="M342.6 150.6c12.5-12.5 12.5-32.8 0-45.3s-32.8-12.5-45.3 0L192 210.7 86.6 105.4c-12.5-12.5-32.8-12.5-45.3 0s-12.5 32.8 0 45.3L146.7 256 41.4 361.4c-12.5 12.5-12.5 32.8 0 45.3s32.8 12.5 45.3 0L192 301.3 297.4 406.6c12.5 12.5 32.8 12.5 45.3 0s12.5-32.8 0-45.3L237.3 256 342.6 150.6z"
        fill="currentColor"
      />
    </symbol>

    <symbol viewBox="0 0 132 23" id="icon-logo-furniture">
      <path
        d="M0.824 22V1.392H15.32V4.752H5.144V10.032H14.136V13.36H5.144V22H0.824ZM22.174 22.32C20.3607 22.32 18.942 21.8187 17.918 20.816C16.9153 19.792 16.414 18.2987 16.414 16.336V6.832H20.734V16.24C20.734 17.264 20.9793 18.0107 21.47 18.48C21.9607 18.928 22.6967 19.152 23.678 19.152C24.4247 19.152 25.1073 19.0027 25.726 18.704C26.366 18.4053 26.91 18.032 27.358 17.584V6.832H31.678V22H27.678L27.518 20.56C26.878 21.072 26.1207 21.4987 25.246 21.84C24.3927 22.16 23.3687 22.32 22.174 22.32ZM35.3553 22V6.832H39.3553L39.5473 8.4C40.2299 7.97333 41.0726 7.58933 42.0753 7.248C43.0993 6.88533 44.1019 6.64 45.0833 6.512V9.776C44.5073 9.86133 43.8779 9.98933 43.1953 10.16C42.5126 10.3307 41.8619 10.5227 41.2433 10.736C40.6246 10.9493 40.1019 11.1733 39.6753 11.408V22H35.3553ZM47.2928 22V6.832H51.2928L51.4528 8.272C52.0714 7.80267 52.8501 7.39733 53.7888 7.056C54.7488 6.69333 55.7514 6.512 56.7968 6.512C58.8021 6.512 60.2634 6.98133 61.1808 7.92C62.0981 8.85867 62.5568 10.3093 62.5568 12.272V22H58.2368V12.496C58.2368 11.472 58.0234 10.7467 57.5968 10.32C57.1914 9.89333 56.4234 9.68 55.2928 9.68C54.6314 9.68 53.9594 9.82933 53.2768 10.128C52.6154 10.4267 52.0608 10.8 51.6128 11.248V22H47.2928ZM67.13 4.048V0.655998H71.834V4.048H67.13ZM67.482 22V10.032H65.21L65.594 6.832H71.802V22H67.482ZM81.4963 22.32C79.7469 22.32 78.4456 21.8613 77.5923 20.944C76.7603 20.0267 76.3443 18.7787 76.3443 17.2V10.16H74.2003V6.832H76.3443V3.568L80.6643 2.288V6.832H84.5043L84.2483 10.16H80.6643V16.912C80.6643 17.744 80.8563 18.32 81.2403 18.64C81.6243 18.9387 82.2216 19.088 83.0323 19.088C83.6296 19.088 84.2483 18.9813 84.8883 18.768V21.744C84.4189 21.936 83.9069 22.0747 83.3523 22.16C82.7976 22.2667 82.1789 22.32 81.4963 22.32ZM92.7053 22.32C90.8919 22.32 89.4733 21.8187 88.4493 20.816C87.4466 19.792 86.9453 18.2987 86.9453 16.336V6.832H91.2653V16.24C91.2653 17.264 91.5106 18.0107 92.0013 18.48C92.4919 18.928 93.2279 19.152 94.2093 19.152C94.9559 19.152 95.6386 19.0027 96.2573 18.704C96.8973 18.4053 97.4413 18.032 97.8893 17.584V6.832H102.209V22H98.2093L98.0493 20.56C97.4093 21.072 96.6519 21.4987 95.7773 21.84C94.9239 22.16 93.8999 22.32 92.7053 22.32ZM105.887 22V6.832H109.887L110.079 8.4C110.761 7.97333 111.604 7.58933 112.607 7.248C113.631 6.88533 114.633 6.64 115.615 6.512V9.776C115.039 9.86133 114.409 9.98933 113.727 10.16C113.044 10.3307 112.393 10.5227 111.775 10.736C111.156 10.9493 110.633 11.1733 110.207 11.408V22H105.887ZM125.103 22.32C122.479 22.32 120.399 21.6693 118.863 20.368C117.327 19.0453 116.559 17.0507 116.559 14.384C116.559 11.9733 117.199 10.064 118.479 8.656C119.78 7.22667 121.711 6.512 124.271 6.512C126.618 6.512 128.41 7.13067 129.647 8.368C130.906 9.584 131.535 11.184 131.535 13.168V15.92H120.559C120.794 17.136 121.348 17.968 122.223 18.416C123.119 18.864 124.378 19.088 125.999 19.088C126.81 19.088 127.631 19.0133 128.463 18.864C129.316 18.7147 130.042 18.5227 130.639 18.288V21.36C129.935 21.68 129.114 21.9147 128.175 22.064C127.236 22.2347 126.212 22.32 125.103 22.32ZM120.559 13.264H127.759V12.432C127.759 11.5573 127.503 10.8747 126.991 10.384C126.479 9.872 125.615 9.616 124.399 9.616C122.97 9.616 121.967 9.904 121.391 10.48C120.836 11.056 120.559 11.984 120.559 13.264Z"
        fill="#B4916C" />
    </symbol>

    <symbol id="icon-instagram" viewBox="0 0 120 120">
      <path
        d="M80,105H40c-12.15,0-22-9.85-22-22V43c0-12.15,9.85-22,22-22h40c12.15,0,22,9.85,22,22v40 C102,95.15,92.15,105,80,105z"
        opacity=".35"></path>
      <path fill="#9500ba"
        d="M80,18h-5.243h-7.476h-8.456H48.482C73.882,27.06,93.843,47.673,102,73.484V62.306v-8.845v-7.712 V40C102,27.85,92.15,18,80,18z"></path>
      <path
        d="M19.5,45c-0.503,0-1,0.024-1.5,0.038v4C18.5,49.023,18.997,49,19.5,49C47.346,49,70,71.654,70,99.5 c0,0.838-0.023,1.672-0.063,2.5h4c0.038-0.829,0.063-1.662,0.063-2.5C74,69.449,49.551,45,19.5,45z"
        opacity=".35"></path>
      <path fill="#ff7500"
        d="M19.5,61c-0.503,0-1.002,0.019-1.5,0.038v4v4v4.007v4.011C18.496,77.023,18.995,77,19.5,77 C31.907,77,42,87.093,42,99.5c0,0.845-0.051,1.679-0.142,2.5h4.021h4.01h4.01h4.01c0.053-0.827,0.09-1.659,0.09-2.5 C58,78.271,40.729,61,19.5,61z"></path>
      <path fill="#b730e1"
        d="M48.482,18H40c-1.637,0-3.23,0.184-4.764,0.523c-2.568,0.567-4.965,1.583-7.11,2.961 c-1.599,1.028-3.059,2.253-4.339,3.648c-1.09,1.188-2.047,2.498-2.858,3.904C59.144,29.803,90,61.105,90,99.5 c0,0.032-0.002,0.063-0.002,0.095c1.407-0.719,2.728-1.581,3.94-2.574c1.418-1.162,2.686-2.499,3.776-3.976 c1.422-1.928,2.538-4.095,3.274-6.432C101.644,84.526,102,82.305,102,80v-6.516C93.843,47.673,73.882,27.06,48.482,18z"></path>
      <path d="M49,18h-9c45,14,62,55.484,62,55.484C95.55,50.75,76,28,49,18z" opacity=".35"></path>
      <path fill="#d663ff"
        d="M20.93,29.036c-0.721,1.252-1.322,2.581-1.789,3.973c-0.433,1.292-0.749,2.637-0.936,4.024 C18.074,38.004,18,38.993,18,40v1.038v4C18.5,45.024,18.997,45,19.5,45C49.551,45,74,69.449,74,99.5 c0,0.838-0.026,1.671-0.063,2.5h4H80c0.654,0,1.299-0.034,1.939-0.09c1.38-0.121,2.723-0.369,4.019-0.733 c1.409-0.396,2.761-0.928,4.04-1.582c0-0.032,0.002-0.063,0.002-0.095C90,61.105,59.144,29.803,20.93,29.036z"></path>
      <path
        d="M20.93,29.036c-0.721,1.252-1.322,2.581-1.789,3.973l0,0C19.261,33.007,19.38,33,19.5,33 c37.58,0,68.38,29.556,70.39,66.643c0.035-0.018,0.073-0.031,0.107-0.048c0-0.032,0.002-0.063,0.002-0.095 C90,61.105,59.144,29.803,20.93,29.036z"
        opacity=".35"></path>
      <path fill="#ff1200"
        d="M19.5,45c-0.503,0-1,0.024-1.5,0.038v4v4v4v4C18.498,61.019,18.997,61,19.5,61 C40.729,61,58,78.271,58,99.5c0,0.841-0.037,1.673-0.09,2.5h4.01h4.01h4.006h4c0.038-0.829,0.063-1.662,0.063-2.5 C74,69.449,49.551,45,19.5,45z"></path>
      <path
        d="M73.949,101.5c0.026-0.665,0.051-1.329,0.051-2C74,69.449,49.551,45,19.5,45 c-0.503,0-1,0.024-1.5,0.038v4C18.5,49.024,18.997,49,19.5,49C48.881,49,72.892,72.373,73.949,101.5z"
        opacity=".35"></path>
      <path
        d="M57.935,101.321C57.966,100.716,58,100.112,58,99.5C58,78.271,40.729,61,19.5,61 c-0.503,0-1.002,0.019-1.5,0.038v4C18.498,65.019,18.997,65,19.5,65C39.997,65,56.8,81.102,57.935,101.321z"
        opacity=".35"></path>
      <path fill="#ffc400"
        d="M19.5,77c-0.505,0-1.004,0.023-1.5,0.056V80c0,0.36,0.01,0.719,0.027,1.075 c0.526,10.926,9.021,19.761,19.8,20.818C38.542,101.962,39.267,102,40,102h1.858c0.091-0.821,0.142-1.655,0.142-2.5 C42,87.093,31.907,77,19.5,77z"></path>
      <path
        d="M19.5,81c11.72,0,21.37,9.008,22.403,20.462c0.057-0.648,0.097-1.3,0.097-1.962 C42,87.093,31.907,77,19.5,77c-0.505,0-1.004,0.023-1.5,0.056V80c0,0.354,0.01,0.705,0.027,1.055C18.514,81.023,19.004,81,19.5,81 z"
        opacity=".35"></path>
      <circle cx="60" cy="64" r="13.5" fill="none" stroke="#000" stroke-miterlimit="10"
        stroke-width="5" opacity=".35"></circle>
      <circle cx="60" cy="60" r="13.5" fill="none" stroke="#fff" stroke-miterlimit="10"
        stroke-width="5"></circle>
      <circle cx="76" cy="48" r="4" opacity=".35"></circle>
      <circle cx="76" cy="44" r="4" fill="#fff"></circle>
      <path fill="none" stroke="#000" stroke-miterlimit="10" stroke-width="5"
        d="M75.1,91.5H44.9 c-6.848,0-12.4-5.552-12.4-12.4V48.9c0-6.848,5.552-12.4,12.4-12.4h30.2c6.848,0,12.4,5.552,12.4,12.4v30.2 C87.5,85.948,81.948,91.5,75.1,91.5z"
        opacity=".35"></path>
      <path fill="none" stroke="#fff" stroke-miterlimit="10" stroke-width="5"
        d="M75.1,87.5H44.9c-6.848,0-12.4-5.552-12.4-12.4 V44.9c0-6.848,5.552-12.4,12.4-12.4h30.2c6.848,0,12.4,5.552,12.4,12.4v30.2C87.5,81.948,81.948,87.5,75.1,87.5z"></path>
    </symbol>

    <symbol id="icon-facebook" viewBox="0 0 30 31" fill="none">
      <g clip-path="url(#clip0_1_15109)">
        <path
          d="M15 30.8223C23.2843 30.8223 30 24.1065 30 15.8223C30 7.53799 23.2843 0.822266 15 0.822266C6.71573 0.822266 0 7.53799 0 15.8223C0 24.1065 6.71573 30.8223 15 30.8223Z"
          fill="#3B5998" />
        <path
          d="M18.7718 16.4106H16.0952V26.2163H12.04V16.4106H10.1113V12.9645H12.04V10.7344C12.04 9.13973 12.7975 6.64258 16.1313 6.64258L19.1352 6.65515V10.0002H16.9557C16.5982 10.0002 16.0955 10.1788 16.0955 10.9395V12.9677H19.1261L18.7718 16.4106Z"
          fill="white" />
      </g>
      <defs>
        <clipPath id="clip0_1_15109">
          <rect width="30" height="30" fill="white" transform="translate(0 0.822266)" />
        </clipPath>
      </defs>
    </symbol>

    <symbol id="icon-messenger" viewBox="0 0 23 24">
      <g clip-path="url(#clip0_1_15097)">
        <path
          d="M11.2489 0.629141C5.16945 0.50927 0.13881 5.33031 0 11.4093C0.0158627 14.5038 1.38608 17.4362 3.74963 19.4335V22.6583C3.74963 22.9171 3.95949 23.127 4.21835 23.127C4.30618 23.127 4.39226 23.1023 4.46674 23.0557L7.07931 21.4237C8.41037 21.9328 9.82382 22.1924 11.2489 22.1896C17.3284 22.3095 22.359 17.4884 22.4978 11.4094C22.359 5.33031 17.3284 0.50927 11.2489 0.629141Z"
          fill="white" />
        <path
          d="M18.6561 8.3154C18.5167 8.12847 18.261 8.07253 18.0562 8.18414L13.1817 10.8417L10.1492 8.24131C9.96322 8.08189 9.68587 8.09248 9.5127 8.2657L3.88824 13.8901C3.70575 14.0737 3.70663 14.3705 3.89026 14.553C4.03707 14.6989 4.26218 14.7313 4.44414 14.6326L9.31865 11.975L12.354 14.5763C12.5399 14.7357 12.8173 14.7251 12.9905 14.5519L18.6149 8.92749C18.7788 8.76206 18.7964 8.50135 18.6561 8.3154Z"
          fill="#2196F3" />
      </g>
      <defs>
        <clipPath id="clip0_1_15097">
          <rect width="22.5" height="22.5" fill="white" transform="translate(0 0.626953)" />
        </clipPath>
      </defs>
    </symbol>

    <symbol id="icon-thunder" viewBox="0 0 26 26">
      <g clip-path="url(#clip0_1_15035)">
        <path
          d="M10.2323 26C10.1311 26 10.0287 25.9798 9.93093 25.9376C9.58862 25.79 9.40347 25.4163 9.49335 25.0545L12.0692 14.6861H5.12892C4.87771 14.6861 4.64265 14.5623 4.50061 14.355C4.35858 14.1478 4.32785 13.8839 4.4185 13.6496L9.50991 0.48694C9.6234 0.193476 9.90564 0 10.2203 0H17.2261C17.4835 0 17.7235 0.13 17.8642 0.345616C18.0047 0.561232 18.027 0.833266 17.9232 1.06884L14.9083 7.91209H20.8711C21.1496 7.91209 21.406 8.06418 21.5395 8.30869C21.6731 8.55315 21.6625 8.85104 21.512 9.08544L10.8735 25.6498C10.7297 25.8739 10.485 26 10.2323 26Z"
          fill="#FFC579" />
        <path
          d="M20.8718 7.91205H14.9091L17.9239 1.06879C18.0277 0.833216 18.0054 0.561181 17.8649 0.345565C17.7243 0.13 17.4843 0 17.2269 0H13.5078V21.5493L21.5127 9.08539C21.6633 8.85099 21.6739 8.55311 21.5403 8.30865C21.4067 8.06413 21.1504 7.91205 20.8718 7.91205Z"
          fill="#FAB55A" />
      </g>
      <defs>
        <clipPath id="clip0_1_15035">
          <rect width="26" height="26" fill="white" />
        </clipPath>
      </defs>
    </symbol>

    <symbol id="icon-twitter" viewBox="0 0 48 48">
      <path fill="#03a9f4" d="M24 4A20 20 0 1 0 24 44A20 20 0 1 0 24 4Z"></path>
      <path fill="#fff"
        d="M36,17.12c-0.882,0.391-1.999,0.758-3,0.88c1.018-0.604,2.633-1.862,3-3 c-0.951,0.559-2.671,1.156-3.793,1.372C31.311,15.422,30.033,15,28.617,15C25.897,15,24,17.305,24,20v2c-4,0-7.9-3.047-10.327-6 c-0.427,0.721-0.667,1.565-0.667,2.457c0,1.819,1.671,3.665,2.994,4.543c-0.807-0.025-2.335-0.641-3-1c0,0.016,0,0.036,0,0.057 c0,2.367,1.661,3.974,3.912,4.422C16.501,26.592,16,27,14.072,27c0.626,1.935,3.773,2.958,5.928,3c-1.686,1.307-4.692,2-7,2 c-0.399,0-0.615,0.022-1-0.023C14.178,33.357,17.22,34,20,34c9.057,0,14-6.918,14-13.37c0-0.212-0.007-0.922-0.018-1.13 C34.95,18.818,35.342,18.104,36,17.12"></path>
    </symbol>

    <symbol id="icon-chevron-left" viewBox="0 0 320 512">
      <path
        d="M9.4 233.4c-12.5 12.5-12.5 32.8 0 45.3l192 192c12.5 12.5 32.8 12.5 45.3 0s12.5-32.8 0-45.3L77.3 256 246.6 86.6c12.5-12.5 12.5-32.8 0-45.3s-32.8-12.5-45.3 0l-192 192z" />
    </symbol>

    <symbol id="icon-spin" viewBox="0 0 100 101">
      <path
        d="M100 50.5908C100 78.2051 77.6142 100.591 50 100.591C22.3858 100.591 0 78.2051 0 50.5908C0 22.9766 22.3858 0.59082 50 0.59082C77.6142 0.59082 100 22.9766 100 50.5908ZM9.08144 50.5908C9.08144 73.1895 27.4013 91.5094 50 91.5094C72.5987 91.5094 90.9186 73.1895 90.9186 50.5908C90.9186 27.9921 72.5987 9.67226 50 9.67226C27.4013 9.67226 9.08144 27.9921 9.08144 50.5908Z"
        fill="currentColor" />
      <path
        d="M93.9676 39.0409C96.393 38.4038 97.8624 35.9116 97.0079 33.5539C95.2932 28.8227 92.871 24.3692 89.8167 20.348C85.8452 15.1192 80.8826 10.7238 75.2124 7.41289C69.5422 4.10194 63.2754 1.94025 56.7698 1.05124C51.7666 0.367541 46.6976 0.446843 41.7345 1.27873C39.2613 1.69328 37.813 4.19778 38.4501 6.62326C39.0873 9.04874 41.5694 10.4717 44.0505 10.1071C47.8511 9.54855 51.7191 9.52689 55.5402 10.0491C60.8642 10.7766 65.9928 12.5457 70.6331 15.2552C75.2735 17.9648 79.3347 21.5619 82.5849 25.841C84.9175 28.9121 86.7997 32.2913 88.1811 35.8758C89.083 38.2158 91.5421 39.6781 93.9676 39.0409Z"
        fill="currentFill" />
    </symbol>

    <symbol id="icon-trash" viewBox="0 0 12 13" fill="none"
      xmlns="http://www.w3.org/2000/svg">
      <path fill-rule="evenodd" clip-rule="evenodd"
        d="M9.33333 2.33398V1.66732C9.33333 1.3137 9.19286 0.974557 8.94281 0.724509C8.69276 0.47446 8.35362 0.333984 8 0.333984H4C3.64638 0.333984 3.30724 0.47446 3.05719 0.724509C2.80714 0.974557 2.66667 1.3137 2.66667 1.66732V2.33398H0.666667C0.489856 2.33398 0.320286 2.40422 0.195262 2.52925C0.0702379 2.65427 0 2.82384 0 3.00065C0 3.17746 0.0702379 3.34703 0.195262 3.47206C0.320286 3.59708 0.489856 3.66732 0.666667 3.66732H1.33333V11.0007C1.33333 11.5311 1.54405 12.0398 1.91912 12.4149C2.29419 12.7899 2.8029 13.0007 3.33333 13.0007H8.66667C9.1971 13.0007 9.70581 12.7899 10.0809 12.4149C10.456 12.0398 10.6667 11.5311 10.6667 11.0007V3.66732H11.3333C11.5101 3.66732 11.6797 3.59708 11.8047 3.47206C11.9298 3.34703 12 3.17746 12 3.00065C12 2.82384 11.9298 2.65427 11.8047 2.52925C11.6797 2.40422 11.5101 2.33398 11.3333 2.33398H9.33333ZM8 1.66732H4V2.33398H8V1.66732ZM9.33333 3.66732H2.66667V11.0007C2.66667 11.1775 2.7369 11.347 2.86193 11.4721C2.98695 11.5971 3.15652 11.6673 3.33333 11.6673H8.66667C8.84348 11.6673 9.01305 11.5971 9.13807 11.4721C9.2631 11.347 9.33333 11.1775 9.33333 11.0007V3.66732Z"
        fill="#CF5763" />
      <path d="M4 5H5.33333V10.3333H4V5ZM6.66667 5H8V10.3333H6.66667V5Z" fill="#CF5763" />
    </symbol>


  </defs>
</svg>